<svg width="20" height="21" viewBox="0 0 20 21" fill="none" xmlns="http://www.w3.org/2000/svg">
<path d="M0.124512 1.4585C0.124512 0.726074 0.710449 0.140137 1.44287 0.140137C11.7334 0.140137 19.9609 8.36768 19.9609 18.6582C19.9609 19.3906 19.375 19.9766 18.6426 19.9766C17.9102 19.9766 17.312 19.3906 17.312 18.6582C17.312 9.83252 10.2686 2.78906 1.44287 2.78906C0.710449 2.78906 0.124512 2.19092 0.124512 1.4585ZM0.124512 6.86621C0.124512 6.13379 0.710449 5.53564 1.44287 5.53564C8.75488 5.53564 14.5654 11.3462 14.5654 18.6582C14.5654 19.3906 13.9673 19.9766 13.2349 19.9766C12.5146 19.9766 11.9165 19.3906 11.9165 18.6582C11.9165 12.7988 7.30225 8.18457 1.44287 8.18457C0.710449 8.18457 0.124512 7.58643 0.124512 6.86621ZM0.124512 12.0908C0.124512 11.3584 0.710449 10.7603 1.44287 10.7603C5.78857 10.7603 9.34082 14.3003 9.34082 18.6582C9.34082 19.3906 8.74268 19.9766 8.01025 19.9766C7.27783 19.9766 6.67969 19.3906 6.67969 18.6582C6.67969 15.7773 4.32373 13.4214 1.44287 13.4214C0.710449 13.4214 0.124512 12.8232 0.124512 12.0908ZM1.97998 20.0742C0.930176 20.0742 0.0268555 19.1953 0.0268555 18.1821C0.0268555 17.1079 0.917969 16.2046 1.97998 16.2046C3.0542 16.2046 3.90869 17.0713 3.90869 18.1455C3.90869 19.1953 3.04199 20.0742 1.97998 20.0742Z" fill="white"/>
</svg>
