<svg width="26" height="27" viewBox="0 0 26 27" fill="none" xmlns="http://www.w3.org/2000/svg">
<path d="M13 26.0771C5.8833 26.0771 0.109375 20.3032 0.109375 13.1865C0.109375 6.06982 5.8833 0.295898 13 0.295898C20.1167 0.295898 25.8906 6.06982 25.8906 13.1865C25.8906 20.3032 20.1167 26.0771 13 26.0771ZM6.65234 14.1875H11.3276C11.584 14.1875 11.7671 14.3706 11.7671 14.6392V19.2656C11.7671 20.4985 13.2197 20.877 13.769 19.6562L18.7495 8.86523C19.2866 7.70557 18.2246 6.64355 17.0527 7.18066L6.28613 12.1855C5.05322 12.7471 5.44385 14.1875 6.65234 14.1875Z" fill="white"/>
</svg>
