<svg width="28" height="25" viewBox="0 0 28 25" fill="none" xmlns="http://www.w3.org/2000/svg">
<path d="M4.60059 24.1982C2.3667 24.1982 0.901855 22.5137 0.901855 20.4995C0.901855 19.877 1.06055 19.2422 1.40234 18.644L10.8018 2.21338C11.5098 0.992676 12.7427 0.35791 14 0.35791C15.2451 0.35791 16.4658 0.980469 17.186 2.21338L26.5854 18.6318C26.9272 19.23 27.0859 19.877 27.0859 20.4995C27.0859 22.5137 25.6211 24.1982 23.3872 24.1982H4.60059ZM14.0122 15.4702C14.8545 15.4702 15.3428 14.9941 15.3916 14.1152L15.5869 8.854C15.6357 7.93848 14.9644 7.30371 14 7.30371C13.0234 7.30371 12.3643 7.92627 12.4131 8.854L12.6084 14.1274C12.645 14.9941 13.1455 15.4702 14.0122 15.4702ZM14.0122 19.877C14.9766 19.877 15.7334 19.2666 15.7334 18.3267C15.7334 17.4111 14.9888 16.7886 14.0122 16.7886C13.0356 16.7886 12.2788 17.4111 12.2788 18.3267C12.2788 19.2666 13.0356 19.877 14.0122 19.877Z" fill="white"/>
</svg>
