<svg width="964" height="641" viewBox="0 0 964 641" fill="none" xmlns="http://www.w3.org/2000/svg">
<path d="M204.307 468.348L183.545 452.035C182.412 451.144 181.987 449.621 182.495 448.273L199.317 403.657C199.945 401.992 202.058 401.492 203.366 402.699C205.321 404.504 208.372 402.422 207.404 399.943L191.433 359.058C190.995 357.937 191.201 356.667 191.972 355.742L196.448 350.371C197.766 348.789 197.331 346.399 195.539 345.384L152.216 320.834C150.668 319.957 150.093 318.011 150.917 316.433L158.195 302.484C158.877 301.175 160.346 300.478 161.792 300.777L203.264 309.358C205.314 309.782 207.236 308.217 207.236 306.124V289.288C207.236 286.467 210.545 284.944 212.688 286.781L217.425 290.841C218.279 291.573 219.446 291.82 220.523 291.497L258.477 280.111C259.483 279.809 260.285 279.047 260.638 278.058L267.712 258.253C268.098 257.172 269.018 256.369 270.142 256.132L282.562 253.517C283.489 253.322 284.456 253.534 285.215 254.1L322.826 282.108L345.641 300.034C345.842 300.192 346.061 300.326 346.293 300.434L376.954 314.643C378.547 315.381 379.284 317.236 378.632 318.866L366.749 348.574C366.64 348.846 366.495 349.103 366.318 349.338L339.238 385.201C337.763 387.154 338.851 389.977 341.255 390.435L349.893 392.08C351.774 392.439 352.958 394.318 352.467 396.17L346.254 419.643C346.054 420.4 346.129 421.203 346.466 421.91L362.049 454.561C362.757 456.043 362.267 457.82 360.901 458.731L337.436 474.374C336.556 474.961 335.449 475.09 334.457 474.723L293.203 459.444C292.116 459.041 290.898 459.238 289.993 459.962L272.8 473.716C271.628 474.654 271.235 476.264 271.845 477.636L275.351 485.525C276.322 487.709 274.723 490.169 272.333 490.169H264.192C263.658 490.169 263.132 490.04 262.66 489.792L246.041 481.087L230.307 472.505C228.901 471.738 227.148 472.091 226.147 473.341L226.013 473.509C225.148 474.59 223.702 475.017 222.39 474.579L205.303 468.884C204.943 468.764 204.606 468.583 204.307 468.348Z" fill="white" fill-opacity="0.8"/>
<path d="M129.223 441.528L181.608 450.393C182.171 450.488 182.7 450.728 183.143 451.089L204.291 468.321C204.6 468.573 204.953 468.767 205.333 468.894L222.39 474.579C223.703 475.017 225.149 474.59 226.013 473.509L226.162 473.324C227.156 472.081 228.895 471.724 230.298 472.474L262.65 489.779C263.129 490.035 263.664 490.169 264.207 490.169H273.246C275.375 490.169 276.948 492.155 276.461 494.228L274.538 502.398C274.274 503.52 273.444 504.423 272.349 504.781L234.39 517.176C233.908 517.333 233.468 517.6 233.105 517.955L197.091 553.186C196.22 554.038 195.889 555.299 196.228 556.468L202.506 578.089C202.871 579.35 202.456 580.707 201.448 581.547L149.779 624.605C149.04 625.22 148.07 625.483 147.122 625.325L100.043 617.479C99.4125 617.374 98.7655 617.454 98.18 617.709L69.2322 630.327C67.847 630.931 66.2288 630.518 65.3028 629.324L36.4738 592.149C35.86 591.358 35.6385 590.331 35.8717 589.356L49.1629 533.846C49.4 532.856 50.0809 532.03 51.008 531.609L57.4004 528.703C58.1829 528.348 58.796 527.701 59.1092 526.9L79.814 473.988C80.4365 472.397 79.7433 470.595 78.2155 469.831L50.5148 455.98C49.8809 455.663 49.1619 455.559 48.464 455.682L39.0829 457.337C37.1637 457.676 35.3701 456.288 35.2167 454.345L33.2189 429.04C33.1043 427.588 33.954 426.233 35.3106 425.703L65.5806 413.891C66.4097 413.567 67.3342 413.592 68.1448 413.959L128.41 441.279C128.669 441.397 128.942 441.48 129.223 441.528Z" fill="white" fill-opacity="0.3"/>
<path d="M48.4637 455.682L38.0457 457.52C36.5516 457.784 35.4293 459.032 35.3249 460.545L33.9054 481.129C33.8698 481.644 33.7138 482.144 33.4498 482.588L1.40392 536.519C0.590394 537.888 0.869801 539.643 2.06832 540.692L11.5216 548.963C12.5409 549.855 12.9123 551.279 12.4585 552.555L1.07077 584.583C0.473818 586.262 1.3164 588.112 2.97491 588.763L21.7984 596.158C22.6409 596.489 23.5824 596.46 24.4026 596.077L34.0585 591.571C34.9709 591.145 35.6392 590.327 35.8736 589.348L49.1626 533.846C49.3998 532.856 50.0806 532.03 51.0078 531.609L57.4001 528.703C58.1827 528.348 58.7958 527.701 59.109 526.9L79.8138 473.988C80.4362 472.397 79.743 470.594 78.2153 469.831L50.5146 455.98C49.8807 455.663 49.1617 455.559 48.4637 455.682Z" fill="white" fill-opacity="0.3"/>
<path d="M177.546 258.916L150.751 256.423C147.825 256.151 146.685 252.479 148.943 250.598L166.923 235.615C167.37 235.242 167.907 234.994 168.481 234.896L190.96 231.059C194.159 230.512 194.735 226.164 191.789 224.804L164.158 212.052C161.757 210.944 161.567 207.603 163.828 206.23L179.787 196.541C180.913 195.858 181.525 194.571 181.345 193.267L178.993 176.218C178.677 173.927 180.754 172.029 183.007 172.549L197.272 175.841C198.758 176.184 200.286 175.464 200.968 174.1L205.775 164.486C206.181 163.675 206.235 162.733 205.925 161.88L200.524 147.028C200.085 145.822 200.385 144.471 201.292 143.564L205.726 139.13C207.807 137.05 206.333 133.492 203.391 133.492H183.088C180.787 133.492 179.191 131.197 179.992 129.04L187.418 109.047C188.219 106.89 186.624 104.595 184.322 104.595H178.232C176.45 104.595 174.99 103.181 174.931 101.4L173.459 56.5011C173.414 55.1336 174.217 53.8801 175.478 53.3491L188.224 47.9826C188.779 47.749 189.259 47.3682 189.613 46.8813L201.123 31.0558C201.837 30.0737 203.032 29.5628 204.236 29.7254L226.361 32.7154C229.044 33.0779 230.175 36.3371 228.293 38.2835L212.714 54.4005C210.981 56.1932 211.783 59.1863 214.181 59.8713L237.948 66.662C240.418 67.3677 241.172 70.4991 239.294 72.2518L209.547 100.016C207.962 101.495 208.208 104.073 210.043 105.227L234.382 120.525C234.983 120.903 235.446 121.465 235.703 122.128L250.772 160.988C250.919 161.369 250.995 161.773 250.995 162.182V192.113C250.995 193.937 252.474 195.415 254.297 195.415H263.331C264.398 195.415 265.399 195.93 266.019 196.798L275.645 210.275C276.645 211.675 276.402 213.609 275.087 214.718L255.305 231.41C253.376 233.037 253.911 236.14 256.275 237.026L264.224 240.007C266.843 240.989 267.132 244.579 264.703 245.967L248.612 255.162C248.014 255.503 247.324 255.65 246.639 255.58L199.787 250.815C199.257 250.761 198.721 250.837 198.226 251.035L179.078 258.694C178.592 258.888 178.067 258.964 177.546 258.916Z" fill="white" fill-opacity="0.3"/>
<path d="M115.29 200.399L84.9196 203.436C83.5114 203.577 82.17 202.805 81.5844 201.517L75.3541 187.81C74.7366 186.451 75.1068 184.848 76.2573 183.897L93.0782 170.002C93.224 169.881 93.3593 169.748 93.4824 169.605L100.814 161.051C102.091 159.561 101.795 157.292 100.178 156.18L92.0428 150.588C90.83 149.754 90.3153 148.218 90.7807 146.822L96.5227 129.596C97.0411 128.04 98.6223 127.101 100.236 127.389L117.733 130.513C119.347 130.802 120.928 129.862 121.446 128.307L125.769 115.34C126.115 114.3 126.956 113.5 128.011 113.204L145.643 108.267C146.489 108.031 147.394 108.14 148.158 108.573L164.703 117.924C165.501 118.375 166.075 119.137 166.289 120.028L170.383 137.085C170.699 138.405 170.177 139.783 169.065 140.561L155.803 149.845C154.921 150.463 154.395 151.473 154.395 152.55V173.271C154.395 173.718 154.304 174.161 154.128 174.572L147.58 189.85C147.19 190.76 146.413 191.447 145.463 191.722L115.879 200.285C115.687 200.341 115.489 200.379 115.29 200.399Z" fill="white" fill-opacity="0.3"/>
<path d="M300.58 246.114L289.233 250.977C286.906 251.974 286.52 255.11 288.535 256.642L345.659 300.055C345.848 300.199 346.052 300.322 346.268 300.422L376.954 314.643C378.547 315.381 379.284 317.236 378.632 318.866L366.749 348.574C366.64 348.847 366.495 349.103 366.318 349.338L339.238 385.201C337.763 387.154 338.851 389.977 341.255 390.435L349.893 392.081C351.775 392.439 352.958 394.318 352.467 396.17L346.254 419.643C346.054 420.4 346.129 421.203 346.466 421.91L361.524 453.459C362.429 455.356 364.852 455.936 366.518 454.655L383.386 441.679C384.24 441.022 385.361 440.823 386.389 441.146L412.218 449.264C413.126 449.549 413.866 450.212 414.25 451.083L434.658 497.395C434.953 498.063 435.461 498.615 436.103 498.964L481.888 523.865C482.079 523.968 482.258 524.09 482.425 524.229L535.621 568.559C536.291 569.118 536.713 569.918 536.795 570.786L540.021 604.986C540.301 607.952 544.055 609.06 545.901 606.722L563.834 584.007C564.833 582.742 564.772 580.94 563.691 579.745L551.107 565.837C550.342 564.991 550.067 563.81 550.381 562.714L555.365 545.267C555.941 543.252 558.224 542.276 560.079 543.252L583.016 555.324C585.215 556.482 587.856 554.887 587.856 552.402V546.674C587.856 545.438 587.167 544.306 586.069 543.739L538.455 519.164C537.356 518.597 536.667 517.465 536.667 516.229V506.682C536.667 504.858 535.188 503.38 533.364 503.38H510.422C509.285 503.38 508.228 502.795 507.624 501.832L482.515 461.815C482.29 461.456 481.998 461.144 481.655 460.896L459.309 444.714C458.617 444.213 458.146 443.464 457.996 442.623L452.988 414.725C452.685 413.034 453.728 411.393 455.388 410.95L474.391 405.883C476.006 405.452 477.687 406.296 478.308 407.847L484.397 423.069C485.455 425.715 489.143 425.868 490.417 423.32L493.384 417.387C494.577 415.001 497.96 414.94 499.237 417.282L505.984 429.652C506.073 429.815 506.176 429.971 506.291 430.117L530.421 460.682C530.728 461.07 531.118 461.385 531.562 461.602L604.995 497.52C606.128 498.074 606.846 499.225 606.846 500.487V539.963C606.846 540.855 607.207 541.71 607.848 542.332L635.356 569.055C635.613 569.304 635.827 569.593 635.991 569.911L649.601 596.331C649.72 596.561 649.865 596.776 650.034 596.972L679.772 631.533C680.137 631.957 680.603 632.281 681.128 632.476L697.296 638.464C699.671 639.344 702.112 637.332 701.702 634.833L695.237 595.396C694.838 592.961 697.152 590.964 699.502 591.716L712.724 595.947C714.085 596.382 715.571 595.893 716.408 594.735L723.855 584.423C724.903 582.972 724.604 580.95 723.181 579.864L694.857 558.248C694.531 558 694.255 557.692 694.041 557.342L676.785 529.042C675.443 526.842 677.027 524.021 679.605 524.021H693.168C693.941 524.021 694.689 523.75 695.283 523.255L717.87 504.432C718.666 503.769 719.726 503.518 720.735 503.753L742.742 508.888C743.492 509.063 744.28 508.97 744.969 508.626L747.303 507.459C750.065 506.078 753.043 508.907 751.805 511.737L744.601 528.204C744.164 529.203 744.248 530.353 744.826 531.278L768.534 569.21C768.626 569.357 768.706 569.511 768.773 569.671L779.377 594.664C779.895 595.884 781.092 596.677 782.417 596.677H811.12C811.442 596.677 811.762 596.724 812.069 596.816L842.561 605.964C843.818 606.341 845.18 605.938 846.029 604.937L866.434 580.888C867.24 579.938 868.513 579.523 869.725 579.814L910.418 589.611C911.598 589.895 912.839 589.509 913.649 588.606L940.716 558.446C941.055 558.068 941.476 557.774 941.947 557.585L963.924 548.795C965.178 548.293 966 547.079 966 545.728V428.634C966 426.99 964.792 425.597 963.164 425.364L909.05 417.634C908.496 417.554 907.931 417.617 907.407 417.817L874.384 430.397C873.824 430.611 873.333 430.972 872.963 431.443L847.005 464.481C846.537 465.076 845.88 465.492 845.142 465.66L800.354 475.875C799.62 476.042 798.852 475.954 798.175 475.625L770.53 462.176C769.393 461.623 768.672 460.47 768.672 459.206V401.017C768.672 400.464 768.81 399.92 769.075 399.435L783.3 373.356C783.455 373.072 783.567 372.768 783.633 372.451L790.837 338.035C790.921 337.632 791.08 337.249 791.305 336.905L803.176 318.748C804.181 317.212 806.245 316.789 807.773 317.807L823.376 328.209C824.277 328.811 825.417 328.931 826.424 328.532L867.997 312.06C868.379 311.908 868.729 311.687 869.029 311.408L914.582 269.052C915.254 268.427 915.636 267.551 915.636 266.633V253.273C915.636 252.199 916.159 251.191 917.038 250.572L936.042 237.199C937.175 236.402 937.69 234.982 937.331 233.644L926.255 192.293C925.843 190.754 924.39 189.728 922.802 189.855L844.319 196.134C843.46 196.203 842.609 195.933 841.946 195.383L800.859 161.273C799.862 160.445 798.471 160.277 797.305 160.845L771.241 173.525C769.766 174.242 767.988 173.768 767.065 172.412L756.135 156.338C755.26 155.052 755.402 153.329 756.474 152.203L769.042 139.007C770.231 137.758 770.26 135.805 769.107 134.522L728.278 89.0705C727.708 88.4363 726.915 88.047 726.065 87.984L684.817 84.9286C683.582 84.8371 682.502 84.0624 682.019 82.9219L664.641 41.8463L655.846 13.8635C655.659 13.2661 655.645 12.6275 655.806 12.0224L657.754 4.71772C658.313 2.6211 656.733 0.564209 654.563 0.564209H629.811C629.367 0.564209 628.928 0.653695 628.519 0.827321L598.124 13.7455C596.904 14.2637 596.113 15.4602 596.113 16.785V28.3147C596.113 29.5296 596.78 30.6465 597.85 31.2225L615.659 40.812C616.824 41.4393 617.502 42.7012 617.382 44.0188L614.749 72.9847C614.529 75.3973 611.873 76.7606 609.785 75.5323L589.395 63.5378C587.695 62.5379 585.503 63.241 584.702 65.0431L573.493 90.2635C573.172 90.9868 573.121 91.8015 573.349 92.5593L585.37 132.378C585.848 133.962 585.081 135.655 583.575 136.339L568.628 143.133C568.24 143.309 567.89 143.559 567.597 143.868L555.595 156.538C554.286 157.92 552.082 157.911 550.783 156.52L543.458 148.672C542.389 147.526 540.66 147.29 539.322 148.107L511.897 164.867L486.129 182.298C484.798 183.199 483.012 183.01 481.898 181.852L465.034 164.314C463.955 163.191 462.239 162.975 460.915 163.795L446.837 172.51C446.196 172.907 445.438 173.072 444.689 172.979L421.227 170.046C420.105 169.906 419.133 169.201 418.65 168.179L406.293 142.01C405.742 140.844 405.92 139.465 406.749 138.477L423.884 118.047C425.34 116.31 424.655 113.656 422.539 112.842L418.606 111.33C417.157 110.772 416.291 109.28 416.528 107.745L419.618 87.6571C420.096 84.5524 416.378 82.5971 414.09 84.75L407.772 90.697C407.295 91.1454 406.697 91.4421 406.051 91.5497L389.637 94.2854C388.204 94.5242 387.096 95.6708 386.906 97.1106L381.73 136.297C381.558 137.602 382.176 138.884 383.305 139.562L388.099 142.438C389.094 143.035 389.703 144.11 389.703 145.27V155.348C389.703 155.638 389.741 155.927 389.816 156.206L395.108 175.862C395.347 176.748 395.206 177.693 394.72 178.471L388.498 188.426C387.739 189.64 386.285 190.227 384.897 189.879L374.925 187.386C374.33 187.238 373.706 187.257 373.122 187.443L339.514 198.137C338.384 198.496 337.534 199.433 337.286 200.592L336.711 203.273C336.159 205.851 332.762 206.469 331.337 204.251C329.958 202.107 326.693 202.598 326.006 205.052L322.176 218.731C322.06 219.146 321.864 219.534 321.598 219.873L301.881 245.111C301.539 245.55 301.091 245.894 300.58 246.114Z" fill="white" fill-opacity="0.3"/>
<path d="M397.688 483.558L400.436 479.436V489.343L401.232 505.259C401.252 505.654 401.2 506.049 401.081 506.426L396.772 519.966C396.118 522.021 393.703 522.908 391.875 521.766L389.954 520.565C389.261 520.132 388.753 519.457 388.528 518.672L383.025 499.41C382.588 497.882 383.302 496.259 384.723 495.548L395.308 490.256C396.427 489.697 397.134 488.553 397.134 487.302V485.39C397.134 484.738 397.327 484.1 397.688 483.558Z" fill="white" fill-opacity="0.3"/>
<path d="M909.703 615.474L908.567 618.125C908.358 618.611 907.827 618.875 907.314 618.746C906.398 618.517 905.651 619.492 906.11 620.316L908.191 624.063C908.709 624.996 909.692 625.574 910.759 625.574H919.128C919.548 625.574 919.964 625.654 920.354 625.81L923.892 627.225V624.943C923.892 623.796 924.487 622.731 925.464 622.13L933.346 617.28C934.159 616.779 934.716 615.952 934.872 615.01L935.095 613.674C935.311 612.377 936.276 611.332 937.552 611.013L942.17 609.859C943.448 609.539 943.783 607.88 942.729 607.089C942.309 606.774 941.759 606.691 941.264 606.867L932.169 610.116C931.125 610.488 929.964 610.313 929.077 609.647L928.948 609.55C927.885 608.754 926.449 608.671 925.302 609.34L918.252 613.452C917.626 613.817 916.897 613.967 916.178 613.877L913.148 613.498C911.688 613.315 910.283 614.121 909.703 615.474Z" fill="white" fill-opacity="0.8"/>
<path d="M916.787 611.155L916.547 611.235C915.131 611.707 915.335 613.771 916.817 613.957C917.122 613.995 917.431 613.931 917.697 613.776L925.302 609.34C926.449 608.671 927.886 608.754 928.948 609.551L929.077 609.648C929.964 610.313 931.125 610.489 932.169 610.116L938.763 607.761C940.201 607.247 940.518 605.354 939.325 604.4C938.535 603.767 938.359 602.636 938.921 601.794L949.487 585.944L930.433 602.616C929.937 603.05 929.322 603.326 928.668 603.408L919.738 604.524C918.016 604.739 916.892 606.44 917.369 608.108L917.729 609.369C917.944 610.12 917.528 610.908 916.787 611.155Z" fill="white" fill-opacity="0.3"/>
<rect x="252.646" y="306.051" width="39.6308" height="39.6308" rx="19.8154" fill="#5E5CE6"/>
<rect x="209.713" y="436.502" width="18.1641" height="18.1641" rx="9.08205" fill="#5E5CE6"/>
<rect x="330.256" y="456.318" width="11.559" height="11.559" rx="5.77949" fill="#5E5CE6"/>
<rect x="913.159" y="609.887" width="11.559" height="11.559" rx="5.77949" fill="#5E5CE6"/>
<path d="M304.403 332.341V317.441C304.403 316.667 304.58 316.086 304.932 315.699C305.285 315.312 305.741 315.119 306.3 315.119C306.876 315.119 307.341 315.312 307.693 315.699C308.054 316.078 308.235 316.658 308.235 317.441V332.341C308.235 333.124 308.054 333.709 307.693 334.096C307.341 334.483 306.876 334.676 306.3 334.676C305.749 334.676 305.294 334.483 304.932 334.096C304.58 333.7 304.403 333.115 304.403 332.341ZM307.177 313.158L305.887 311.649L304.597 313.158C304.236 313.588 303.991 313.85 303.862 313.945C303.733 314.04 303.492 314.087 303.139 314.087H302.107C301.755 314.087 301.578 314.027 301.578 313.906C301.578 313.812 301.712 313.597 301.978 313.261L303.41 311.545C303.531 311.399 303.668 311.232 303.823 311.042C303.978 310.844 304.111 310.707 304.223 310.629C304.343 310.543 304.515 310.479 304.739 310.436C304.963 310.384 305.221 310.359 305.513 310.359H306.235C306.803 310.359 307.19 310.427 307.396 310.565C307.611 310.703 307.925 311.029 308.338 311.545L309.822 313.287C310.071 313.614 310.196 313.807 310.196 313.868C310.196 314.014 310.002 314.087 309.615 314.087H308.635C308.377 314.087 308.17 314.052 308.016 313.984C307.869 313.906 307.728 313.79 307.59 313.635C307.452 313.481 307.315 313.321 307.177 313.158ZM312.286 332.535V317.26C312.286 316.555 312.441 316.022 312.75 315.661C313.068 315.3 313.494 315.119 314.027 315.119C314.561 315.119 314.991 315.3 315.317 315.661C315.644 316.013 315.808 316.547 315.808 317.26V332.535C315.808 333.249 315.64 333.786 315.305 334.147C314.978 334.5 314.552 334.676 314.027 334.676C313.511 334.676 313.09 334.491 312.763 334.122C312.445 333.752 312.286 333.223 312.286 332.535ZM329.289 328.381H322.4C322.408 329.181 322.568 329.886 322.877 330.496C323.195 331.107 323.613 331.567 324.129 331.877C324.653 332.186 325.229 332.341 325.857 332.341C326.279 332.341 326.661 332.294 327.005 332.199C327.358 332.096 327.698 331.941 328.025 331.735C328.351 331.52 328.652 331.292 328.928 331.051C329.203 330.81 329.56 330.484 329.998 330.071C330.179 329.916 330.437 329.839 330.772 329.839C331.134 329.839 331.426 329.937 331.65 330.135C331.873 330.333 331.985 330.613 331.985 330.974C331.985 331.292 331.86 331.666 331.611 332.096C331.362 332.518 330.983 332.926 330.476 333.322C329.977 333.709 329.345 334.031 328.579 334.289C327.822 334.547 326.95 334.676 325.96 334.676C323.699 334.676 321.94 334.031 320.684 332.741C319.428 331.451 318.801 329.701 318.801 327.491C318.801 326.45 318.955 325.487 319.265 324.601C319.575 323.706 320.026 322.941 320.62 322.305C321.213 321.668 321.944 321.182 322.813 320.847C323.681 320.503 324.645 320.331 325.702 320.331C327.079 320.331 328.257 320.623 329.237 321.208C330.226 321.784 330.966 322.532 331.456 323.453C331.946 324.373 332.191 325.31 332.191 326.265C332.191 327.151 331.938 327.727 331.43 327.994C330.923 328.252 330.209 328.381 329.289 328.381ZM322.4 326.381H328.786C328.7 325.177 328.373 324.278 327.805 323.685C327.246 323.083 326.507 322.782 325.586 322.782C324.709 322.782 323.987 323.087 323.419 323.698C322.86 324.3 322.52 325.194 322.4 326.381ZM339.803 329.039H335.726C335.107 329.039 334.634 328.897 334.307 328.613C333.989 328.321 333.83 327.946 333.83 327.491C333.83 327.026 333.985 326.652 334.294 326.368C334.612 326.076 335.09 325.93 335.726 325.93H339.803C340.439 325.93 340.912 326.076 341.222 326.368C341.54 326.652 341.699 327.026 341.699 327.491C341.699 327.946 341.544 328.321 341.235 328.613C340.925 328.897 340.448 329.039 339.803 329.039ZM353.619 332.664V332.315C353.146 332.857 352.678 333.3 352.213 333.644C351.757 333.98 351.259 334.233 350.717 334.405C350.184 334.586 349.599 334.676 348.962 334.676C348.119 334.676 347.337 334.5 346.614 334.147C345.901 333.786 345.281 333.274 344.757 332.612C344.232 331.95 343.832 331.172 343.557 330.277C343.29 329.383 343.157 328.415 343.157 327.375C343.157 325.173 343.695 323.457 344.77 322.227C345.845 320.997 347.259 320.382 349.014 320.382C350.029 320.382 350.884 320.559 351.581 320.911C352.278 321.255 352.957 321.789 353.619 322.511V317.312C353.619 316.59 353.761 316.043 354.045 315.674C354.338 315.304 354.75 315.119 355.284 315.119C355.817 315.119 356.225 315.291 356.509 315.635C356.802 315.97 356.948 316.469 356.948 317.131V332.664C356.948 333.335 356.793 333.838 356.483 334.173C356.174 334.509 355.774 334.676 355.284 334.676C354.802 334.676 354.402 334.504 354.084 334.16C353.774 333.808 353.619 333.309 353.619 332.664ZM346.692 327.491C346.692 328.445 346.838 329.258 347.13 329.929C347.431 330.6 347.84 331.107 348.356 331.451C348.872 331.787 349.435 331.954 350.046 331.954C350.665 331.954 351.229 331.795 351.736 331.477C352.252 331.15 352.66 330.656 352.961 329.993C353.271 329.323 353.426 328.488 353.426 327.491C353.426 326.553 353.271 325.749 352.961 325.078C352.66 324.399 352.248 323.883 351.723 323.53C351.207 323.169 350.639 322.988 350.02 322.988C349.375 322.988 348.799 323.173 348.291 323.543C347.784 323.904 347.388 324.429 347.105 325.117C346.829 325.796 346.692 326.588 346.692 327.491ZM370.313 328.381H363.424C363.433 329.181 363.592 329.886 363.901 330.496C364.219 331.107 364.637 331.567 365.153 331.877C365.677 332.186 366.253 332.341 366.881 332.341C367.303 332.341 367.685 332.294 368.029 332.199C368.382 332.096 368.722 331.941 369.049 331.735C369.375 331.52 369.676 331.292 369.952 331.051C370.227 330.81 370.584 330.484 371.022 330.071C371.203 329.916 371.461 329.839 371.796 329.839C372.158 329.839 372.45 329.937 372.674 330.135C372.897 330.333 373.009 330.613 373.009 330.974C373.009 331.292 372.884 331.666 372.635 332.096C372.386 332.518 372.007 332.926 371.5 333.322C371.001 333.709 370.369 334.031 369.603 334.289C368.846 334.547 367.974 334.676 366.984 334.676C364.723 334.676 362.964 334.031 361.708 332.741C360.452 331.451 359.825 329.701 359.825 327.491C359.825 326.45 359.979 325.487 360.289 324.601C360.599 323.706 361.05 322.941 361.644 322.305C362.237 321.668 362.968 321.182 363.837 320.847C364.705 320.503 365.669 320.331 366.726 320.331C368.103 320.331 369.281 320.623 370.261 321.208C371.25 321.784 371.99 322.532 372.48 323.453C372.97 324.373 373.216 325.31 373.216 326.265C373.216 327.151 372.962 327.727 372.454 327.994C371.947 328.252 371.233 328.381 370.313 328.381ZM363.424 326.381H369.81C369.724 325.177 369.397 324.278 368.829 323.685C368.27 323.083 367.531 322.782 366.61 322.782C365.733 322.782 365.011 323.087 364.443 323.698C363.884 324.3 363.544 325.194 363.424 326.381ZM380.827 329.039H376.75C376.131 329.039 375.658 328.897 375.331 328.613C375.013 328.321 374.854 327.946 374.854 327.491C374.854 327.026 375.009 326.652 375.318 326.368C375.637 326.076 376.114 325.93 376.75 325.93H380.827C381.463 325.93 381.936 326.076 382.246 326.368C382.564 326.652 382.723 327.026 382.723 327.491C382.723 327.946 382.568 328.321 382.259 328.613C381.949 328.897 381.472 329.039 380.827 329.039ZM396.54 318.396H388.993V323.233H395.301C395.886 323.233 396.321 323.367 396.604 323.633C396.897 323.891 397.043 324.24 397.043 324.678C397.043 325.117 396.897 325.465 396.604 325.723C396.312 325.981 395.878 326.11 395.301 326.11H388.993V332.341C388.993 333.132 388.812 333.722 388.451 334.109C388.099 334.487 387.643 334.676 387.084 334.676C386.516 334.676 386.052 334.483 385.69 334.096C385.338 333.709 385.161 333.124 385.161 332.341V317.789C385.161 317.239 385.243 316.792 385.407 316.448C385.57 316.095 385.824 315.841 386.168 315.687C386.52 315.523 386.968 315.441 387.509 315.441H396.54C397.15 315.441 397.602 315.579 397.894 315.854C398.195 316.121 398.346 316.473 398.346 316.912C398.346 317.359 398.195 317.721 397.894 317.996C397.602 318.262 397.15 318.396 396.54 318.396ZM403.455 329.593V332.535C403.455 333.249 403.287 333.786 402.951 334.147C402.616 334.5 402.19 334.676 401.674 334.676C401.167 334.676 400.75 334.496 400.423 334.134C400.096 333.773 399.933 333.24 399.933 332.535V322.73C399.933 321.148 400.505 320.357 401.649 320.357C402.233 320.357 402.655 320.541 402.913 320.911C403.171 321.281 403.313 321.827 403.339 322.55C403.76 321.827 404.19 321.281 404.629 320.911C405.076 320.541 405.669 320.357 406.409 320.357C407.148 320.357 407.867 320.541 408.563 320.911C409.26 321.281 409.608 321.771 409.608 322.382C409.608 322.812 409.458 323.169 409.157 323.453C408.864 323.728 408.546 323.866 408.202 323.866C408.073 323.866 407.759 323.788 407.26 323.633C406.77 323.47 406.336 323.388 405.957 323.388C405.441 323.388 405.02 323.526 404.693 323.801C404.366 324.068 404.113 324.468 403.932 325.001C403.751 325.534 403.627 326.17 403.558 326.91C403.489 327.641 403.455 328.536 403.455 329.593ZM419.774 332.69C418.922 333.352 418.097 333.851 417.297 334.186C416.506 334.513 415.616 334.676 414.627 334.676C413.724 334.676 412.928 334.5 412.24 334.147C411.561 333.786 411.036 333.3 410.666 332.69C410.296 332.079 410.111 331.417 410.111 330.703C410.111 329.74 410.417 328.918 411.027 328.239C411.638 327.559 412.476 327.104 413.543 326.871C413.767 326.82 414.321 326.704 415.207 326.523C416.093 326.342 416.85 326.179 417.478 326.033C418.114 325.878 418.802 325.693 419.542 325.478C419.499 324.549 419.309 323.87 418.974 323.44C418.647 323.001 417.964 322.782 416.923 322.782C416.028 322.782 415.353 322.907 414.897 323.156C414.45 323.405 414.063 323.78 413.736 324.278C413.418 324.777 413.19 325.108 413.053 325.272C412.924 325.427 412.64 325.504 412.201 325.504C411.806 325.504 411.462 325.379 411.169 325.13C410.885 324.872 410.743 324.545 410.743 324.149C410.743 323.53 410.963 322.928 411.401 322.343C411.84 321.758 412.524 321.277 413.453 320.898C414.381 320.52 415.538 320.331 416.923 320.331C418.471 320.331 419.688 320.516 420.574 320.885C421.46 321.247 422.083 321.823 422.444 322.614C422.814 323.405 422.999 324.455 422.999 325.762C422.999 326.588 422.995 327.289 422.986 327.865C422.986 328.441 422.982 329.082 422.973 329.787C422.973 330.449 423.081 331.142 423.296 331.864C423.519 332.578 423.631 333.038 423.631 333.244C423.631 333.606 423.459 333.937 423.115 334.238C422.78 334.53 422.397 334.676 421.967 334.676C421.606 334.676 421.249 334.509 420.896 334.173C420.544 333.829 420.17 333.335 419.774 332.69ZM419.542 327.594C419.026 327.783 418.273 327.985 417.284 328.2C416.304 328.407 415.624 328.561 415.246 328.665C414.867 328.759 414.506 328.953 414.162 329.245C413.818 329.529 413.646 329.929 413.646 330.445C413.646 330.978 413.848 331.434 414.252 331.812C414.657 332.182 415.186 332.367 415.839 332.367C416.536 332.367 417.177 332.217 417.761 331.916C418.355 331.606 418.789 331.21 419.064 330.729C419.383 330.195 419.542 329.318 419.542 328.097V327.594ZM429.785 322.305V322.73C430.404 321.913 431.079 321.316 431.81 320.937C432.55 320.55 433.397 320.357 434.352 320.357C435.28 320.357 436.11 320.559 436.841 320.963C437.573 321.367 438.119 321.939 438.48 322.679C438.712 323.109 438.863 323.573 438.931 324.072C439 324.571 439.035 325.207 439.035 325.981V332.535C439.035 333.24 438.871 333.773 438.544 334.134C438.226 334.496 437.809 334.676 437.293 334.676C436.768 334.676 436.343 334.491 436.016 334.122C435.689 333.752 435.526 333.223 435.526 332.535V326.665C435.526 325.504 435.362 324.618 435.035 324.007C434.717 323.388 434.076 323.079 433.113 323.079C432.485 323.079 431.913 323.268 431.397 323.646C430.881 324.016 430.503 324.528 430.262 325.181C430.09 325.706 430.004 326.686 430.004 328.123V332.535C430.004 333.249 429.836 333.786 429.501 334.147C429.174 334.5 428.748 334.676 428.224 334.676C427.716 334.676 427.299 334.491 426.972 334.122C426.646 333.752 426.482 333.223 426.482 332.535V322.356C426.482 321.685 426.628 321.187 426.921 320.86C427.213 320.524 427.613 320.357 428.121 320.357C428.43 320.357 428.71 320.43 428.959 320.576C429.209 320.722 429.406 320.941 429.553 321.234C429.707 321.526 429.785 321.883 429.785 322.305ZM455.186 330.316C455.186 330.754 455.053 331.223 454.786 331.722C454.528 332.221 454.128 332.698 453.586 333.154C453.053 333.601 452.378 333.962 451.561 334.238C450.744 334.513 449.824 334.65 448.8 334.65C446.624 334.65 444.926 334.018 443.705 332.754C442.483 331.481 441.873 329.778 441.873 327.645C441.873 326.201 442.152 324.923 442.711 323.814C443.27 322.704 444.079 321.849 445.137 321.247C446.194 320.636 447.459 320.331 448.929 320.331C449.841 320.331 450.675 320.464 451.432 320.731C452.198 320.997 452.843 321.341 453.367 321.763C453.9 322.184 454.305 322.636 454.58 323.117C454.864 323.59 455.006 324.033 455.006 324.446C455.006 324.867 454.846 325.224 454.528 325.517C454.219 325.809 453.84 325.955 453.393 325.955C453.101 325.955 452.855 325.882 452.658 325.736C452.468 325.581 452.253 325.336 452.013 325.001C451.583 324.347 451.131 323.857 450.658 323.53C450.194 323.203 449.6 323.04 448.878 323.04C447.837 323.04 446.999 323.448 446.362 324.265C445.726 325.074 445.407 326.183 445.407 327.594C445.407 328.256 445.489 328.867 445.653 329.426C445.816 329.976 446.053 330.449 446.362 330.845C446.672 331.232 447.046 331.529 447.484 331.735C447.923 331.933 448.405 332.032 448.929 332.032C449.635 332.032 450.237 331.868 450.735 331.541C451.243 331.215 451.69 330.716 452.077 330.045C452.292 329.649 452.524 329.34 452.774 329.116C453.023 328.892 453.328 328.781 453.69 328.781C454.12 328.781 454.477 328.944 454.76 329.271C455.044 329.598 455.186 329.946 455.186 330.316ZM468.1 328.381H461.211C461.219 329.181 461.378 329.886 461.688 330.496C462.006 331.107 462.423 331.567 462.939 331.877C463.464 332.186 464.04 332.341 464.668 332.341C465.09 332.341 465.472 332.294 465.816 332.199C466.169 332.096 466.509 331.941 466.835 331.735C467.162 331.52 467.463 331.292 467.739 331.051C468.014 330.81 468.371 330.484 468.809 330.071C468.99 329.916 469.248 329.839 469.583 329.839C469.945 329.839 470.237 329.937 470.461 330.135C470.684 330.333 470.796 330.613 470.796 330.974C470.796 331.292 470.671 331.666 470.422 332.096C470.172 332.518 469.794 332.926 469.287 333.322C468.788 333.709 468.156 334.031 467.39 334.289C466.633 334.547 465.76 334.676 464.771 334.676C462.509 334.676 460.751 334.031 459.495 332.741C458.239 331.451 457.611 329.701 457.611 327.491C457.611 326.45 457.766 325.487 458.076 324.601C458.386 323.706 458.837 322.941 459.43 322.305C460.024 321.668 460.755 321.182 461.624 320.847C462.492 320.503 463.455 320.331 464.513 320.331C465.889 320.331 467.068 320.623 468.048 321.208C469.037 321.784 469.777 322.532 470.267 323.453C470.757 324.373 471.002 325.31 471.002 326.265C471.002 327.151 470.749 327.727 470.241 327.994C469.734 328.252 469.02 328.381 468.1 328.381ZM461.211 326.381H467.597C467.511 325.177 467.184 324.278 466.616 323.685C466.057 323.083 465.317 322.782 464.397 322.782C463.52 322.782 462.798 323.087 462.23 323.698C461.671 324.3 461.331 325.194 461.211 326.381Z" fill="#5E5CE6"/>
<path d="M303.639 305.539V293.529H307.697C308.635 293.529 309.405 293.69 310.007 294.01C310.609 294.327 311.055 294.763 311.344 295.318C311.633 295.873 311.778 296.504 311.778 297.212C311.778 297.919 311.633 298.547 311.344 299.094C311.055 299.641 310.611 300.071 310.013 300.384C309.415 300.693 308.651 300.847 307.72 300.847H304.436V299.534H307.673C308.314 299.534 308.83 299.44 309.221 299.252C309.616 299.065 309.901 298.799 310.077 298.455C310.257 298.107 310.347 297.693 310.347 297.212C310.347 296.731 310.257 296.311 310.077 295.951C309.898 295.591 309.61 295.314 309.215 295.118C308.821 294.919 308.299 294.819 307.65 294.819H305.093V305.539H303.639ZM309.292 300.144L312.247 305.539H310.558L307.65 300.144H309.292ZM317.693 305.726C316.825 305.726 316.077 305.535 315.447 305.152C314.822 304.765 314.339 304.225 313.999 303.533C313.663 302.837 313.495 302.028 313.495 301.105C313.495 300.183 313.663 299.37 313.999 298.666C314.339 297.958 314.812 297.407 315.418 297.012C316.028 296.614 316.739 296.414 317.552 296.414C318.022 296.414 318.485 296.492 318.942 296.649C319.4 296.805 319.816 297.059 320.191 297.411C320.567 297.759 320.866 298.22 321.088 298.795C321.311 299.37 321.423 300.077 321.423 300.918V301.504H314.48V300.308H320.015C320.015 299.8 319.914 299.346 319.71 298.948C319.511 298.549 319.226 298.234 318.854 298.003C318.487 297.773 318.053 297.657 317.552 297.657C317.001 297.657 316.524 297.794 316.122 298.068C315.723 298.338 315.416 298.69 315.201 299.123C314.986 299.557 314.879 300.023 314.879 300.519V301.317C314.879 301.997 314.996 302.573 315.23 303.046C315.469 303.516 315.799 303.873 316.221 304.12C316.644 304.362 317.134 304.483 317.693 304.483C318.057 304.483 318.385 304.432 318.678 304.331C318.975 304.225 319.231 304.069 319.447 303.861C319.662 303.65 319.828 303.388 319.945 303.076L321.282 303.451C321.141 303.904 320.905 304.303 320.572 304.647C320.24 304.987 319.83 305.253 319.341 305.445C318.852 305.632 318.303 305.726 317.693 305.726ZM316.849 295.312L318.28 292.591H319.898L318.068 295.312H316.849ZM327.163 309.104C326.495 309.104 325.92 309.018 325.439 308.846C324.959 308.678 324.558 308.455 324.237 308.177C323.921 307.904 323.669 307.61 323.481 307.298L324.583 306.524C324.708 306.688 324.867 306.876 325.058 307.087C325.25 307.302 325.512 307.487 325.844 307.644C326.18 307.804 326.62 307.884 327.163 307.884C327.891 307.884 328.491 307.708 328.964 307.356C329.437 307.005 329.673 306.453 329.673 305.703V303.873H329.556C329.454 304.037 329.31 304.241 329.122 304.483C328.938 304.722 328.672 304.935 328.324 305.122C327.98 305.306 327.515 305.398 326.929 305.398C326.202 305.398 325.549 305.226 324.97 304.882C324.396 304.538 323.94 304.037 323.604 303.381C323.272 302.724 323.106 301.926 323.106 300.988C323.106 300.066 323.268 299.262 323.592 298.578C323.917 297.89 324.368 297.358 324.947 296.983C325.525 296.604 326.194 296.414 326.952 296.414C327.539 296.414 328.004 296.512 328.348 296.707C328.696 296.899 328.962 297.118 329.145 297.364C329.333 297.607 329.478 297.806 329.579 297.962H329.72V296.532H331.057V305.797C331.057 306.571 330.881 307.2 330.529 307.685C330.181 308.173 329.712 308.531 329.122 308.758C328.536 308.989 327.883 309.104 327.163 309.104ZM327.117 304.155C327.672 304.155 328.141 304.028 328.524 303.774C328.907 303.519 329.198 303.154 329.398 302.677C329.597 302.2 329.697 301.629 329.697 300.965C329.697 300.316 329.599 299.743 329.403 299.247C329.208 298.75 328.919 298.361 328.536 298.08C328.152 297.798 327.679 297.657 327.117 297.657C326.53 297.657 326.041 297.806 325.651 298.103C325.264 298.4 324.972 298.799 324.777 299.299C324.585 299.8 324.489 300.355 324.489 300.965C324.489 301.59 324.587 302.143 324.783 302.624C324.982 303.101 325.275 303.476 325.662 303.75C326.053 304.02 326.538 304.155 327.117 304.155ZM333.59 305.539V296.532H334.974V305.539H333.59ZM334.294 295.03C334.024 295.03 333.792 294.939 333.596 294.755C333.405 294.571 333.309 294.35 333.309 294.092C333.309 293.834 333.405 293.613 333.596 293.43C333.792 293.246 334.024 293.154 334.294 293.154C334.564 293.154 334.794 293.246 334.986 293.43C335.181 293.613 335.279 293.834 335.279 294.092C335.279 294.35 335.181 294.571 334.986 294.755C334.794 294.939 334.564 295.03 334.294 295.03ZM341.168 305.726C340.355 305.726 339.641 305.533 339.028 305.146C338.418 304.759 337.941 304.217 337.597 303.521C337.257 302.826 337.087 302.012 337.087 301.082C337.087 300.144 337.257 299.325 337.597 298.625C337.941 297.925 338.418 297.382 339.028 296.995C339.641 296.608 340.355 296.414 341.168 296.414C341.981 296.414 342.693 296.608 343.302 296.995C343.916 297.382 344.393 297.925 344.733 298.625C345.077 299.325 345.249 300.144 345.249 301.082C345.249 302.012 345.077 302.826 344.733 303.521C344.393 304.217 343.916 304.759 343.302 305.146C342.693 305.533 341.981 305.726 341.168 305.726ZM341.168 304.483C341.786 304.483 342.294 304.325 342.693 304.008C343.091 303.691 343.386 303.275 343.578 302.759C343.77 302.243 343.865 301.684 343.865 301.082C343.865 300.48 343.77 299.919 343.578 299.399C343.386 298.879 343.091 298.459 342.693 298.138C342.294 297.818 341.786 297.657 341.168 297.657C340.55 297.657 340.042 297.818 339.643 298.138C339.245 298.459 338.949 298.879 338.758 299.399C338.566 299.919 338.471 300.48 338.471 301.082C338.471 301.684 338.566 302.243 338.758 302.759C338.949 303.275 339.245 303.691 339.643 304.008C340.042 304.325 340.55 304.483 341.168 304.483ZM348.746 300.12V305.539H347.362V296.532H348.699V297.939H348.816C349.027 297.482 349.348 297.114 349.778 296.837C350.208 296.555 350.763 296.414 351.443 296.414C352.053 296.414 352.586 296.539 353.044 296.79C353.501 297.036 353.857 297.411 354.111 297.915C354.365 298.416 354.492 299.049 354.492 299.815V305.539H353.108V299.909C353.108 299.202 352.925 298.65 352.557 298.256C352.19 297.857 351.685 297.657 351.044 297.657C350.603 297.657 350.208 297.753 349.86 297.945C349.516 298.136 349.244 298.416 349.045 298.783C348.845 299.151 348.746 299.596 348.746 300.12Z" fill="#808080"/>
<path d="M357.128 464.379L364.495 475.525V464.276C364.495 463.545 364.65 462.999 364.959 462.638C365.277 462.268 365.703 462.083 366.236 462.083C366.787 462.083 367.221 462.268 367.539 462.638C367.857 462.999 368.017 463.545 368.017 464.276V479.151C368.017 480.81 367.329 481.64 365.952 481.64C365.608 481.64 365.299 481.589 365.024 481.486C364.748 481.391 364.49 481.236 364.25 481.021C364.009 480.806 363.785 480.557 363.579 480.273C363.372 479.981 363.166 479.684 362.96 479.383L355.774 468.366V479.447C355.774 480.17 355.606 480.716 355.271 481.086C354.935 481.455 354.505 481.64 353.981 481.64C353.439 481.64 353.005 481.455 352.678 481.086C352.351 480.707 352.187 480.161 352.187 479.447V464.857C352.187 464.237 352.256 463.751 352.394 463.399C352.557 463.012 352.828 462.698 353.207 462.457C353.585 462.208 353.994 462.083 354.432 462.083C354.776 462.083 355.069 462.139 355.309 462.251C355.559 462.363 355.774 462.513 355.954 462.702C356.144 462.891 356.333 463.137 356.522 463.438C356.72 463.739 356.922 464.053 357.128 464.379ZM375.486 469.32V479.499C375.486 480.204 375.318 480.737 374.983 481.099C374.647 481.46 374.222 481.64 373.706 481.64C373.19 481.64 372.768 481.455 372.441 481.086C372.123 480.716 371.964 480.187 371.964 479.499V469.423C371.964 468.727 372.123 468.202 372.441 467.85C372.768 467.497 373.19 467.321 373.706 467.321C374.222 467.321 374.647 467.497 374.983 467.85C375.318 468.202 375.486 468.692 375.486 469.32ZM373.744 465.682C373.254 465.682 372.833 465.532 372.48 465.231C372.136 464.93 371.964 464.504 371.964 463.954C371.964 463.455 372.14 463.046 372.493 462.728C372.854 462.401 373.271 462.238 373.744 462.238C374.2 462.238 374.604 462.384 374.957 462.676C375.31 462.969 375.486 463.395 375.486 463.954C375.486 464.495 375.314 464.921 374.97 465.231C374.626 465.532 374.217 465.682 373.744 465.682ZM391.767 477.28C391.767 477.719 391.633 478.187 391.367 478.686C391.109 479.185 390.709 479.662 390.167 480.118C389.634 480.565 388.959 480.927 388.142 481.202C387.325 481.477 386.404 481.615 385.381 481.615C383.205 481.615 381.506 480.982 380.285 479.718C379.064 478.445 378.453 476.742 378.453 474.61C378.453 473.165 378.733 471.888 379.292 470.778C379.851 469.669 380.659 468.813 381.717 468.211C382.775 467.6 384.039 467.295 385.51 467.295C386.421 467.295 387.256 467.428 388.013 467.695C388.778 467.961 389.423 468.305 389.948 468.727C390.481 469.148 390.885 469.6 391.16 470.081C391.444 470.554 391.586 470.997 391.586 471.41C391.586 471.832 391.427 472.189 391.109 472.481C390.799 472.773 390.421 472.92 389.973 472.92C389.681 472.92 389.436 472.846 389.238 472.7C389.049 472.545 388.834 472.3 388.593 471.965C388.163 471.311 387.712 470.821 387.239 470.494C386.774 470.167 386.181 470.004 385.458 470.004C384.418 470.004 383.579 470.413 382.943 471.23C382.306 472.038 381.988 473.147 381.988 474.558C381.988 475.22 382.07 475.831 382.233 476.39C382.396 476.94 382.633 477.413 382.943 477.809C383.252 478.196 383.626 478.493 384.065 478.699C384.504 478.897 384.985 478.996 385.51 478.996C386.215 478.996 386.817 478.832 387.316 478.506C387.823 478.179 388.271 477.68 388.658 477.009C388.873 476.613 389.105 476.304 389.354 476.08C389.604 475.857 389.909 475.745 390.27 475.745C390.7 475.745 391.057 475.908 391.341 476.235C391.625 476.562 391.767 476.91 391.767 477.28ZM404.68 475.345H397.791C397.8 476.145 397.959 476.85 398.269 477.461C398.587 478.071 399.004 478.531 399.52 478.841C400.045 479.151 400.621 479.305 401.249 479.305C401.67 479.305 402.053 479.258 402.397 479.163C402.749 479.06 403.089 478.905 403.416 478.699C403.743 478.484 404.044 478.256 404.319 478.015C404.594 477.774 404.951 477.448 405.39 477.035C405.57 476.88 405.828 476.803 406.164 476.803C406.525 476.803 406.817 476.902 407.041 477.099C407.265 477.297 407.376 477.577 407.376 477.938C407.376 478.256 407.252 478.63 407.002 479.06C406.753 479.482 406.374 479.89 405.867 480.286C405.368 480.673 404.736 480.995 403.971 481.253C403.214 481.511 402.341 481.64 401.352 481.64C399.09 481.64 397.331 480.995 396.075 479.705C394.82 478.415 394.192 476.665 394.192 474.455C394.192 473.414 394.347 472.451 394.656 471.565C394.966 470.671 395.418 469.905 396.011 469.269C396.604 468.632 397.335 468.146 398.204 467.811C399.073 467.467 400.036 467.295 401.094 467.295C402.47 467.295 403.648 467.587 404.629 468.172C405.618 468.748 406.357 469.497 406.848 470.417C407.338 471.337 407.583 472.275 407.583 473.229C407.583 474.115 407.329 474.691 406.822 474.958C406.314 475.216 405.6 475.345 404.68 475.345ZM397.791 473.345H404.177C404.091 472.141 403.764 471.242 403.197 470.649C402.638 470.047 401.898 469.746 400.978 469.746C400.1 469.746 399.378 470.051 398.81 470.662C398.251 471.264 397.912 472.158 397.791 473.345Z" fill="#3F3DAB"/>
<path d="M352.019 440.493L355.584 450.603H355.725L359.29 440.493H360.814L356.405 452.502H354.904L350.494 440.493H352.019ZM362.497 452.502V443.495H363.881V452.502H362.497ZM363.201 441.994C362.931 441.994 362.699 441.902 362.503 441.719C362.312 441.535 362.216 441.314 362.216 441.056C362.216 440.798 362.312 440.577 362.503 440.393C362.699 440.21 362.931 440.118 363.201 440.118C363.471 440.118 363.702 440.21 363.893 440.393C364.089 440.577 364.186 440.798 364.186 441.056C364.186 441.314 364.089 441.535 363.893 441.719C363.702 441.902 363.471 441.994 363.201 441.994ZM367.8 440.493V452.502H366.416V440.493H367.8ZM371.718 440.493V452.502H370.335V440.493H371.718ZM378.03 452.69C377.162 452.69 376.413 452.499 375.784 452.115C375.158 451.728 374.675 451.189 374.335 450.497C373.999 449.801 373.831 448.992 373.831 448.069C373.831 447.147 373.999 446.334 374.335 445.63C374.675 444.922 375.148 444.371 375.754 443.976C376.364 443.578 377.076 443.378 377.889 443.378C378.358 443.378 378.821 443.456 379.279 443.613C379.736 443.769 380.152 444.023 380.528 444.375C380.903 444.723 381.202 445.184 381.425 445.759C381.648 446.334 381.759 447.041 381.759 447.882V448.468H374.816V447.272H380.352C380.352 446.764 380.25 446.31 380.047 445.911C379.847 445.513 379.562 445.198 379.191 444.967C378.823 444.737 378.389 444.621 377.889 444.621C377.338 444.621 376.861 444.758 376.458 445.032C376.059 445.302 375.752 445.653 375.537 446.087C375.322 446.521 375.215 446.986 375.215 447.483V448.28C375.215 448.961 375.332 449.537 375.567 450.01C375.805 450.479 376.135 450.837 376.558 451.083C376.98 451.326 377.47 451.447 378.03 451.447C378.393 451.447 378.721 451.396 379.015 451.294C379.312 451.189 379.568 451.033 379.783 450.825C379.998 450.614 380.164 450.352 380.281 450.04L381.618 450.415C381.478 450.868 381.241 451.267 380.909 451.611C380.576 451.951 380.166 452.217 379.677 452.409C379.189 452.596 378.639 452.69 378.03 452.69Z" fill="#808080"/>
<path d="M790.977 587.632C790.977 588.234 790.826 588.888 790.525 589.593C790.233 590.29 789.768 590.978 789.132 591.657C788.496 592.328 787.683 592.874 786.694 593.296C785.705 593.717 784.552 593.928 783.236 593.928C782.239 593.928 781.331 593.833 780.514 593.644C779.697 593.455 778.953 593.162 778.283 592.767C777.62 592.362 777.01 591.834 776.451 591.18C775.952 590.586 775.526 589.924 775.174 589.193C774.821 588.454 774.554 587.667 774.374 586.832C774.202 585.998 774.116 585.112 774.116 584.175C774.116 582.653 774.335 581.289 774.774 580.085C775.221 578.881 775.857 577.854 776.683 577.002C777.509 576.142 778.476 575.488 779.586 575.041C780.695 574.594 781.878 574.37 783.133 574.37C784.664 574.37 786.027 574.676 787.223 575.286C788.418 575.897 789.334 576.654 789.971 577.557C790.607 578.451 790.925 579.298 790.925 580.098C790.925 580.537 790.77 580.924 790.461 581.259C790.151 581.595 789.777 581.762 789.338 581.762C788.848 581.762 788.478 581.646 788.229 581.414C787.988 581.182 787.717 580.782 787.416 580.214C786.917 579.277 786.328 578.576 785.649 578.112C784.978 577.647 784.148 577.415 783.159 577.415C781.585 577.415 780.329 578.013 779.392 579.208C778.463 580.404 777.999 582.102 777.999 584.304C777.999 585.775 778.205 587 778.618 587.981C779.031 588.952 779.616 589.679 780.372 590.161C781.129 590.642 782.015 590.883 783.03 590.883C784.131 590.883 785.06 590.612 785.817 590.07C786.582 589.52 787.158 588.716 787.545 587.658C787.709 587.159 787.911 586.755 788.152 586.445C788.392 586.127 788.779 585.968 789.313 585.968C789.768 585.968 790.16 586.127 790.487 586.445C790.813 586.764 790.977 587.159 790.977 587.632ZM797.621 576.512V581.737C798.068 581.221 798.502 580.812 798.924 580.511C799.354 580.21 799.827 579.986 800.343 579.84C800.859 579.685 801.413 579.608 802.007 579.608C802.901 579.608 803.693 579.797 804.381 580.176C805.077 580.554 805.623 581.105 806.019 581.827C806.268 582.248 806.436 582.721 806.522 583.246C806.608 583.762 806.651 584.36 806.651 585.039V591.786C806.651 592.491 806.488 593.025 806.161 593.386C805.843 593.747 805.417 593.928 804.884 593.928C803.723 593.928 803.142 593.214 803.142 591.786V585.839C803.142 584.712 802.974 583.848 802.639 583.246C802.304 582.635 801.667 582.33 800.73 582.33C800.102 582.33 799.534 582.511 799.027 582.872C798.528 583.225 798.154 583.71 797.904 584.33C797.715 584.854 797.621 585.787 797.621 587.129V591.786C797.621 592.483 797.462 593.016 797.143 593.386C796.834 593.747 796.399 593.928 795.84 593.928C794.679 593.928 794.099 593.214 794.099 591.786V576.512C794.099 575.798 794.249 575.265 794.55 574.912C794.86 574.551 795.29 574.37 795.84 574.37C796.399 574.37 796.834 574.551 797.143 574.912C797.462 575.273 797.621 575.807 797.621 576.512ZM813.398 594.366L813.721 593.579L809.386 582.665C809.119 582.038 808.986 581.582 808.986 581.298C808.986 580.997 809.064 580.717 809.218 580.459C809.373 580.201 809.584 579.995 809.85 579.84C810.126 579.685 810.409 579.608 810.702 579.608C811.209 579.608 811.592 579.771 811.85 580.098C812.108 580.416 812.336 580.877 812.534 581.479L815.514 590.148L818.339 582.085C818.563 581.431 818.765 580.92 818.945 580.55C819.126 580.18 819.315 579.931 819.513 579.802C819.719 579.673 820.008 579.608 820.377 579.608C820.644 579.608 820.898 579.681 821.139 579.827C821.388 579.965 821.577 580.154 821.706 580.395C821.844 580.636 821.913 580.889 821.913 581.156C821.878 581.32 821.822 581.552 821.745 581.853C821.667 582.154 821.573 582.459 821.461 582.769L816.868 594.792C816.473 595.85 816.086 596.68 815.707 597.282C815.329 597.884 814.826 598.344 814.198 598.662C813.579 598.989 812.74 599.153 811.682 599.153C810.65 599.153 809.876 599.041 809.36 598.817C808.844 598.593 808.586 598.185 808.586 597.592C808.586 597.187 808.707 596.873 808.947 596.65C809.197 596.435 809.562 596.327 810.044 596.327C810.233 596.327 810.418 596.353 810.599 596.405C810.822 596.456 811.016 596.482 811.179 596.482C811.583 596.482 811.902 596.422 812.134 596.301C812.366 596.181 812.572 595.97 812.753 595.669C812.942 595.377 813.157 594.943 813.398 594.366ZM827.718 581.582V582.008C828.38 581.191 829.068 580.593 829.782 580.214C830.496 579.827 831.304 579.634 832.207 579.634C833.291 579.634 834.289 579.913 835.2 580.472C836.112 581.031 836.83 581.848 837.355 582.923C837.888 583.999 838.154 585.271 838.154 586.742C838.154 587.826 838 588.823 837.69 589.735C837.389 590.638 836.972 591.399 836.439 592.018C835.905 592.629 835.273 593.102 834.542 593.438C833.82 593.764 833.041 593.928 832.207 593.928C831.201 593.928 830.354 593.726 829.666 593.321C828.986 592.917 828.337 592.324 827.718 591.541V596.83C827.718 598.378 827.155 599.153 826.028 599.153C825.366 599.153 824.927 598.95 824.712 598.546C824.497 598.151 824.389 597.57 824.389 596.805V581.608C824.389 580.937 824.536 580.438 824.828 580.111C825.121 579.776 825.52 579.608 826.028 579.608C826.527 579.608 826.931 579.78 827.241 580.124C827.559 580.459 827.718 580.945 827.718 581.582ZM834.62 586.703C834.62 585.775 834.478 584.979 834.194 584.317C833.91 583.646 833.515 583.134 833.007 582.782C832.508 582.42 831.954 582.24 831.343 582.24C830.371 582.24 829.55 582.622 828.879 583.388C828.217 584.153 827.886 585.28 827.886 586.768C827.886 588.17 828.217 589.262 828.879 590.045C829.541 590.819 830.362 591.206 831.343 591.206C831.928 591.206 832.47 591.038 832.968 590.703C833.467 590.359 833.867 589.847 834.168 589.167C834.469 588.488 834.62 587.667 834.62 586.703ZM844.476 588.845V591.786C844.476 592.5 844.308 593.038 843.973 593.399C843.637 593.751 843.212 593.928 842.695 593.928C842.188 593.928 841.771 593.747 841.444 593.386C841.117 593.025 840.954 592.491 840.954 591.786V581.982C840.954 580.399 841.526 579.608 842.67 579.608C843.255 579.608 843.676 579.793 843.934 580.163C844.192 580.533 844.334 581.079 844.36 581.801C844.781 581.079 845.211 580.533 845.65 580.163C846.097 579.793 846.69 579.608 847.43 579.608C848.17 579.608 848.888 579.793 849.584 580.163C850.281 580.533 850.629 581.023 850.629 581.633C850.629 582.063 850.479 582.42 850.178 582.704C849.885 582.979 849.567 583.117 849.223 583.117C849.094 583.117 848.78 583.04 848.281 582.885C847.791 582.721 847.357 582.64 846.978 582.64C846.462 582.64 846.041 582.777 845.714 583.053C845.387 583.319 845.134 583.719 844.953 584.252C844.772 584.785 844.648 585.422 844.579 586.162C844.51 586.893 844.476 587.787 844.476 588.845ZM861.724 587.632H854.835C854.844 588.432 855.003 589.137 855.312 589.748C855.631 590.359 856.048 590.819 856.564 591.128C857.088 591.438 857.665 591.593 858.292 591.593C858.714 591.593 859.096 591.545 859.441 591.451C859.793 591.348 860.133 591.193 860.46 590.986C860.786 590.771 861.087 590.543 861.363 590.303C861.638 590.062 861.995 589.735 862.433 589.322C862.614 589.167 862.872 589.09 863.207 589.09C863.569 589.09 863.861 589.189 864.085 589.387C864.308 589.585 864.42 589.864 864.42 590.225C864.42 590.543 864.295 590.918 864.046 591.348C863.797 591.769 863.418 592.178 862.911 592.573C862.412 592.96 861.78 593.283 861.014 593.541C860.258 593.799 859.385 593.928 858.396 593.928C856.134 593.928 854.375 593.283 853.119 591.993C851.864 590.703 851.236 588.952 851.236 586.742C851.236 585.701 851.391 584.738 851.7 583.852C852.01 582.958 852.461 582.192 853.055 581.556C853.648 580.92 854.379 580.434 855.248 580.098C856.116 579.754 857.08 579.582 858.138 579.582C859.514 579.582 860.692 579.875 861.672 580.459C862.661 581.036 863.401 581.784 863.891 582.704C864.381 583.624 864.627 584.562 864.627 585.517C864.627 586.402 864.373 586.979 863.865 587.245C863.358 587.503 862.644 587.632 861.724 587.632ZM854.835 585.633H861.221C861.135 584.429 860.808 583.53 860.24 582.936C859.681 582.334 858.942 582.033 858.021 582.033C857.144 582.033 856.422 582.339 855.854 582.949C855.295 583.551 854.955 584.446 854.835 585.633ZM874.057 586.768C874.057 585.469 874.169 584.257 874.392 583.13C874.616 581.995 874.956 580.881 875.412 579.789C875.867 578.688 876.431 577.587 877.101 576.486C877.506 575.815 877.845 575.334 878.121 575.041C878.396 574.74 878.654 574.555 878.895 574.486C879.144 574.409 879.462 574.37 879.849 574.37C880.271 574.37 880.481 574.486 880.481 574.719C880.481 574.796 880.284 575.265 879.888 576.125C879.492 576.976 879.118 577.871 878.766 578.808C878.422 579.746 878.099 580.915 877.798 582.317C877.506 583.719 877.36 585.203 877.36 586.768C877.36 588.316 877.506 589.782 877.798 591.167C878.091 592.552 878.422 593.751 878.791 594.766C879.17 595.781 879.544 596.688 879.914 597.488C880.292 598.297 880.481 598.735 880.481 598.804C880.481 599.036 880.271 599.153 879.849 599.153C879.454 599.153 879.131 599.109 878.882 599.023C878.641 598.946 878.387 598.757 878.121 598.456C877.854 598.155 877.514 597.673 877.101 597.011C876.422 595.876 875.859 594.779 875.412 593.721C874.973 592.672 874.637 591.58 874.405 590.445C874.173 589.309 874.057 588.084 874.057 586.768ZM883.849 585.787V576.692C883.849 575.918 884.021 575.338 884.365 574.951C884.717 574.564 885.177 574.37 885.745 574.37C886.338 574.37 886.807 574.564 887.151 574.951C887.504 575.338 887.68 575.918 887.68 576.692V585.994C887.68 587.052 887.796 587.938 888.028 588.651C888.269 589.357 888.691 589.907 889.293 590.303C889.895 590.69 890.737 590.883 891.821 590.883C893.318 590.883 894.375 590.488 894.995 589.696C895.614 588.896 895.924 587.688 895.924 586.071V576.692C895.924 575.91 896.096 575.329 896.44 574.951C896.784 574.564 897.244 574.37 897.82 574.37C898.396 574.37 898.861 574.564 899.213 574.951C899.574 575.329 899.755 575.91 899.755 576.692V585.787C899.755 587.267 899.609 588.501 899.316 589.49C899.033 590.479 898.491 591.348 897.691 592.096C897.003 592.732 896.203 593.197 895.291 593.489C894.38 593.782 893.313 593.928 892.092 593.928C890.639 593.928 889.387 593.773 888.338 593.463C887.289 593.145 886.433 592.659 885.771 592.006C885.108 591.343 884.623 590.5 884.313 589.477C884.003 588.445 883.849 587.215 883.849 585.787ZM916.358 577.647H907.728V582.291H915.674C916.259 582.291 916.694 582.425 916.977 582.691C917.27 582.949 917.416 583.293 917.416 583.723C917.416 584.153 917.274 584.506 916.99 584.781C916.706 585.048 916.268 585.181 915.674 585.181H907.728V590.561H916.655C917.257 590.561 917.708 590.703 918.009 590.986C918.319 591.262 918.474 591.631 918.474 592.096C918.474 592.543 918.319 592.909 918.009 593.192C917.708 593.468 917.257 593.605 916.655 593.605H906.244C905.41 593.605 904.808 593.42 904.438 593.05C904.077 592.681 903.896 592.083 903.896 591.257V577.041C903.896 576.49 903.978 576.043 904.141 575.699C904.305 575.347 904.558 575.093 904.902 574.938C905.255 574.775 905.702 574.693 906.244 574.693H916.358C916.969 574.693 917.42 574.83 917.713 575.106C918.014 575.372 918.164 575.725 918.164 576.164C918.164 576.611 918.014 576.972 917.713 577.247C917.42 577.514 916.969 577.647 916.358 577.647ZM927.169 586.768C927.169 588.66 926.915 590.419 926.408 592.044C925.909 593.67 925.148 595.325 924.124 597.011C923.548 597.957 923.092 598.55 922.757 598.791C922.421 599.032 921.966 599.153 921.389 599.153C920.959 599.153 920.744 599.036 920.744 598.804C920.744 598.727 920.925 598.31 921.286 597.553C921.647 596.805 922.022 595.91 922.409 594.869C922.804 593.829 923.144 592.608 923.428 591.206C923.72 589.795 923.866 588.316 923.866 586.768C923.866 585.211 923.72 583.728 923.428 582.317C923.135 580.907 922.796 579.685 922.409 578.653C922.022 577.621 921.647 576.727 921.286 575.97C920.925 575.205 920.744 574.787 920.744 574.719C920.744 574.486 920.959 574.37 921.389 574.37C921.991 574.37 922.456 574.486 922.783 574.719C923.109 574.942 923.557 575.531 924.124 576.486C924.632 577.329 925.075 578.159 925.453 578.976C925.832 579.793 926.145 580.61 926.395 581.427C926.653 582.244 926.846 583.096 926.975 583.981C927.104 584.867 927.169 585.796 927.169 586.768Z" fill="#3F3DAB"/>
<path d="M774.254 564.79V552.78H778.312C779.254 552.78 780.024 552.951 780.622 553.291C781.224 553.627 781.67 554.082 781.959 554.657C782.249 555.232 782.393 555.873 782.393 556.58C782.393 557.288 782.249 557.931 781.959 558.51C781.674 559.088 781.232 559.549 780.634 559.893C780.036 560.234 779.27 560.404 778.335 560.404H775.427V559.114H778.288C778.933 559.114 779.451 559.002 779.842 558.779C780.233 558.556 780.517 558.255 780.693 557.876C780.872 557.493 780.962 557.061 780.962 556.58C780.962 556.099 780.872 555.669 780.693 555.29C780.517 554.911 780.231 554.614 779.837 554.399C779.442 554.18 778.918 554.071 778.265 554.071H775.708V564.79H774.254ZM787.199 565.001C786.628 565.001 786.11 564.893 785.645 564.678C785.18 564.459 784.81 564.145 784.536 563.734C784.263 563.32 784.126 562.82 784.126 562.233C784.126 561.717 784.228 561.299 784.431 560.978C784.634 560.654 784.906 560.4 785.246 560.216C785.586 560.032 785.961 559.895 786.372 559.805C786.786 559.712 787.203 559.637 787.621 559.583C788.168 559.512 788.612 559.459 788.952 559.424C789.296 559.385 789.546 559.321 789.703 559.231C789.863 559.141 789.943 558.985 789.943 558.762V558.715C789.943 558.136 789.785 557.687 789.468 557.366C789.155 557.046 788.68 556.885 788.043 556.885C787.382 556.885 786.864 557.03 786.489 557.319C786.114 557.608 785.85 557.917 785.698 558.246L784.384 557.777C784.619 557.229 784.931 556.803 785.322 556.498C785.717 556.189 786.147 555.974 786.612 555.853C787.081 555.728 787.543 555.666 787.996 555.666C788.285 555.666 788.618 555.701 788.993 555.771C789.372 555.838 789.738 555.976 790.09 556.187C790.445 556.399 790.74 556.717 790.975 557.143C791.21 557.569 791.327 558.14 791.327 558.855V564.79H789.943V563.57H789.873C789.779 563.766 789.622 563.975 789.404 564.198C789.185 564.42 788.893 564.61 788.53 564.766C788.166 564.923 787.723 565.001 787.199 565.001ZM787.41 563.758C787.957 563.758 788.418 563.65 788.794 563.435C789.173 563.22 789.458 562.943 789.65 562.603C789.845 562.262 789.943 561.905 789.943 561.529V560.263C789.884 560.333 789.755 560.398 789.556 560.456C789.361 560.511 789.134 560.56 788.876 560.603C788.622 560.642 788.373 560.677 788.131 560.709C787.893 560.736 787.699 560.759 787.551 560.779C787.191 560.826 786.855 560.902 786.542 561.008C786.233 561.109 785.983 561.264 785.791 561.471C785.604 561.674 785.51 561.952 785.51 562.303C785.51 562.784 785.688 563.148 786.043 563.394C786.403 563.637 786.859 563.758 787.41 563.758ZM794.422 568.167C794.187 568.167 793.978 568.148 793.794 568.109C793.61 568.074 793.483 568.038 793.413 568.003L793.765 566.784C794.101 566.87 794.398 566.901 794.656 566.877C794.914 566.854 795.143 566.739 795.342 566.531C795.545 566.328 795.731 565.998 795.899 565.54L796.157 564.837L792.827 555.783H794.328L796.814 562.96H796.908L799.394 555.783H800.895L797.072 566.103C796.9 566.569 796.687 566.954 796.433 567.259C796.179 567.567 795.884 567.796 795.547 567.945C795.215 568.093 794.84 568.167 794.422 568.167ZM809.102 557.8L807.859 558.152C807.781 557.945 807.665 557.743 807.513 557.548C807.364 557.348 807.161 557.184 806.903 557.055C806.645 556.926 806.315 556.862 805.912 556.862C805.361 556.862 804.901 556.989 804.534 557.243C804.17 557.493 803.989 557.812 803.989 558.199C803.989 558.543 804.114 558.814 804.364 559.014C804.614 559.213 805.005 559.379 805.537 559.512L806.874 559.841C807.679 560.036 808.279 560.335 808.674 560.738C809.069 561.137 809.266 561.651 809.266 562.28C809.266 562.796 809.118 563.257 808.82 563.664C808.527 564.07 808.117 564.391 807.589 564.626C807.061 564.86 806.448 564.977 805.748 564.977C804.829 564.977 804.069 564.778 803.467 564.379C802.865 563.981 802.483 563.398 802.323 562.632L803.637 562.303C803.762 562.788 803.998 563.152 804.346 563.394C804.698 563.637 805.157 563.758 805.724 563.758C806.369 563.758 806.881 563.621 807.261 563.347C807.644 563.07 807.835 562.737 807.835 562.35C807.835 562.038 807.726 561.776 807.507 561.565C807.288 561.35 806.952 561.189 806.498 561.084L804.997 560.732C804.172 560.536 803.566 560.234 803.179 559.823C802.796 559.409 802.605 558.891 802.605 558.269C802.605 557.761 802.747 557.311 803.033 556.92C803.322 556.529 803.715 556.223 804.211 556C804.712 555.777 805.279 555.666 805.912 555.666C806.803 555.666 807.503 555.861 808.011 556.252C808.523 556.643 808.887 557.159 809.102 557.8Z" fill="#808080"/>
<path d="M227.361 406.12H223.181V419.859C223.181 420.651 223.005 421.24 222.652 421.627C222.299 422.005 221.843 422.194 221.284 422.194C220.717 422.194 220.252 422.001 219.891 421.614C219.539 421.227 219.362 420.642 219.362 419.859V406.12H215.182C214.529 406.12 214.043 405.978 213.725 405.694C213.406 405.402 213.247 405.019 213.247 404.546C213.247 404.056 213.411 403.669 213.738 403.385C214.073 403.101 214.555 402.959 215.182 402.959H227.361C228.023 402.959 228.513 403.106 228.831 403.398C229.158 403.691 229.322 404.073 229.322 404.546C229.322 405.019 229.158 405.402 228.831 405.694C228.505 405.978 228.014 406.12 227.361 406.12ZM242.854 415.034C242.854 416.084 242.691 417.051 242.364 417.937C242.037 418.823 241.564 419.584 240.945 420.221C240.326 420.857 239.586 421.347 238.726 421.691C237.866 422.027 236.899 422.194 235.823 422.194C234.757 422.194 233.798 422.022 232.947 421.678C232.095 421.334 231.356 420.844 230.728 420.208C230.108 419.563 229.635 418.806 229.309 417.937C228.99 417.06 228.831 416.092 228.831 415.034C228.831 413.968 228.995 412.992 229.322 412.106C229.648 411.22 230.117 410.463 230.728 409.836C231.338 409.208 232.078 408.726 232.947 408.391C233.815 408.047 234.774 407.875 235.823 407.875C236.89 407.875 237.857 408.047 238.726 408.391C239.595 408.735 240.339 409.225 240.958 409.861C241.577 410.498 242.046 411.255 242.364 412.132C242.691 413.009 242.854 413.977 242.854 415.034ZM239.32 415.034C239.32 413.598 239.001 412.48 238.365 411.68C237.737 410.88 236.89 410.481 235.823 410.481C235.135 410.481 234.529 410.661 234.004 411.022C233.48 411.375 233.076 411.9 232.792 412.596C232.508 413.293 232.366 414.106 232.366 415.034C232.366 415.955 232.504 416.759 232.779 417.447C233.063 418.135 233.463 418.664 233.979 419.034C234.503 419.395 235.118 419.576 235.823 419.576C236.89 419.576 237.737 419.176 238.365 418.376C239.001 417.567 239.32 416.454 239.32 415.034ZM254.787 420.208V419.756C254.366 420.289 253.923 420.737 253.459 421.098C252.994 421.459 252.487 421.726 251.936 421.898C251.386 422.078 250.758 422.169 250.053 422.169C249.201 422.169 248.436 421.992 247.757 421.64C247.086 421.287 246.565 420.801 246.196 420.182C245.757 419.434 245.538 418.359 245.538 416.957V409.977C245.538 409.272 245.697 408.748 246.015 408.404C246.333 408.051 246.755 407.875 247.279 407.875C247.812 407.875 248.242 408.051 248.569 408.404C248.896 408.756 249.06 409.281 249.06 409.977V415.615C249.06 416.432 249.128 417.12 249.266 417.679C249.404 418.23 249.649 418.664 250.001 418.982C250.362 419.292 250.848 419.447 251.459 419.447C252.052 419.447 252.612 419.27 253.136 418.918C253.661 418.565 254.043 418.105 254.284 417.537C254.482 417.038 254.581 415.946 254.581 414.26V409.977C254.581 409.281 254.744 408.756 255.071 408.404C255.398 408.051 255.824 407.875 256.348 407.875C256.873 407.875 257.294 408.051 257.613 408.404C257.931 408.748 258.09 409.272 258.09 409.977V420.182C258.09 420.853 257.935 421.356 257.626 421.691C257.325 422.027 256.933 422.194 256.452 422.194C255.97 422.194 255.57 422.022 255.252 421.678C254.942 421.326 254.787 420.835 254.787 420.208ZM261.612 420.053V404.778C261.612 404.073 261.767 403.54 262.076 403.179C262.394 402.818 262.82 402.637 263.353 402.637C263.887 402.637 264.317 402.818 264.644 403.179C264.97 403.531 265.134 404.065 265.134 404.778V420.053C265.134 420.767 264.966 421.304 264.631 421.665C264.304 422.018 263.878 422.194 263.353 422.194C262.837 422.194 262.416 422.009 262.089 421.64C261.771 421.27 261.612 420.741 261.612 420.053ZM281.969 415.034C281.969 416.084 281.806 417.051 281.479 417.937C281.152 418.823 280.679 419.584 280.06 420.221C279.441 420.857 278.701 421.347 277.841 421.691C276.981 422.027 276.013 422.194 274.938 422.194C273.872 422.194 272.913 422.022 272.061 421.678C271.21 421.334 270.47 420.844 269.842 420.208C269.223 419.563 268.75 418.806 268.423 417.937C268.105 417.06 267.946 416.092 267.946 415.034C267.946 413.968 268.109 412.992 268.436 412.106C268.763 411.22 269.232 410.463 269.842 409.836C270.453 409.208 271.193 408.726 272.061 408.391C272.93 408.047 273.889 407.875 274.938 407.875C276.005 407.875 276.972 408.047 277.841 408.391C278.71 408.735 279.453 409.225 280.073 409.861C280.692 410.498 281.161 411.255 281.479 412.132C281.806 413.009 281.969 413.977 281.969 415.034ZM278.434 415.034C278.434 413.598 278.116 412.48 277.48 411.68C276.852 410.88 276.005 410.481 274.938 410.481C274.25 410.481 273.644 410.661 273.119 411.022C272.595 411.375 272.19 411.9 271.907 412.596C271.623 413.293 271.481 414.106 271.481 415.034C271.481 415.955 271.618 416.759 271.894 417.447C272.177 418.135 272.577 418.664 273.093 419.034C273.618 419.395 274.233 419.576 274.938 419.576C276.005 419.576 276.852 419.176 277.48 418.376C278.116 417.567 278.434 416.454 278.434 415.034ZM293.902 420.208V419.756C293.481 420.289 293.038 420.737 292.573 421.098C292.109 421.459 291.602 421.726 291.051 421.898C290.501 422.078 289.873 422.169 289.168 422.169C288.316 422.169 287.551 421.992 286.871 421.64C286.2 421.287 285.68 420.801 285.31 420.182C284.872 419.434 284.652 418.359 284.652 416.957V409.977C284.652 409.272 284.812 408.748 285.13 408.404C285.448 408.051 285.869 407.875 286.394 407.875C286.927 407.875 287.357 408.051 287.684 408.404C288.011 408.756 288.174 409.281 288.174 409.977V415.615C288.174 416.432 288.243 417.12 288.381 417.679C288.518 418.23 288.763 418.664 289.116 418.982C289.477 419.292 289.963 419.447 290.574 419.447C291.167 419.447 291.726 419.27 292.251 418.918C292.776 418.565 293.158 418.105 293.399 417.537C293.597 417.038 293.696 415.946 293.696 414.26V409.977C293.696 409.281 293.859 408.756 294.186 408.404C294.513 408.051 294.939 407.875 295.463 407.875C295.988 407.875 296.409 408.051 296.727 408.404C297.046 408.748 297.205 409.272 297.205 409.977V420.182C297.205 420.853 297.05 421.356 296.74 421.691C296.439 422.027 296.048 422.194 295.566 422.194C295.085 422.194 294.685 422.022 294.367 421.678C294.057 421.326 293.902 420.835 293.902 420.208ZM312.066 417.589C312.066 418.561 311.83 419.395 311.357 420.092C310.884 420.78 310.183 421.304 309.254 421.665C308.334 422.018 307.211 422.194 305.887 422.194C304.623 422.194 303.539 422.001 302.636 421.614C301.733 421.227 301.066 420.745 300.636 420.169C300.206 419.584 299.991 418.999 299.991 418.414C299.991 418.027 300.129 417.696 300.404 417.421C300.679 417.146 301.028 417.008 301.449 417.008C301.819 417.008 302.103 417.099 302.3 417.279C302.498 417.46 302.687 417.714 302.868 418.04C303.229 418.668 303.659 419.137 304.158 419.447C304.666 419.756 305.354 419.911 306.222 419.911C306.928 419.911 307.504 419.756 307.951 419.447C308.407 419.128 308.635 418.767 308.635 418.363C308.635 417.744 308.398 417.292 307.925 417.008C307.461 416.724 306.691 416.454 305.616 416.196C304.403 415.895 303.414 415.581 302.649 415.254C301.892 414.918 301.286 414.48 300.83 413.938C300.374 413.396 300.146 412.73 300.146 411.938C300.146 411.233 300.357 410.567 300.778 409.939C301.2 409.311 301.819 408.812 302.636 408.442C303.462 408.064 304.455 407.875 305.616 407.875C306.528 407.875 307.345 407.969 308.067 408.158C308.798 408.348 309.404 408.601 309.886 408.92C310.376 409.238 310.746 409.59 310.996 409.977C311.254 410.364 311.383 410.743 311.383 411.113C311.383 411.517 311.245 411.848 310.97 412.106C310.703 412.364 310.32 412.493 309.822 412.493C309.46 412.493 309.151 412.39 308.893 412.183C308.643 411.977 308.355 411.667 308.028 411.255C307.762 410.911 307.448 410.635 307.087 410.429C306.725 410.223 306.235 410.119 305.616 410.119C304.98 410.119 304.451 410.257 304.029 410.532C303.608 410.799 303.397 411.134 303.397 411.538C303.397 411.908 303.552 412.214 303.861 412.454C304.171 412.687 304.588 412.88 305.113 413.035C305.637 413.19 306.36 413.379 307.28 413.603C308.372 413.869 309.263 414.187 309.951 414.557C310.647 414.927 311.172 415.366 311.524 415.873C311.886 416.372 312.066 416.944 312.066 417.589ZM324.877 415.899H317.988C317.996 416.699 318.155 417.404 318.465 418.015C318.783 418.625 319.2 419.085 319.716 419.395C320.241 419.705 320.817 419.859 321.445 419.859C321.866 419.859 322.249 419.812 322.593 419.717C322.946 419.614 323.286 419.459 323.612 419.253C323.939 419.038 324.24 418.81 324.515 418.569C324.791 418.328 325.148 418.002 325.586 417.589C325.767 417.434 326.025 417.357 326.36 417.357C326.721 417.357 327.014 417.456 327.237 417.653C327.461 417.851 327.573 418.131 327.573 418.492C327.573 418.81 327.448 419.184 327.199 419.614C326.949 420.036 326.571 420.444 326.063 420.84C325.565 421.227 324.932 421.549 324.167 421.807C323.41 422.065 322.537 422.194 321.548 422.194C319.286 422.194 317.528 421.549 316.272 420.259C315.016 418.969 314.388 417.219 314.388 415.009C314.388 413.968 314.543 413.005 314.853 412.119C315.162 411.224 315.614 410.459 316.207 409.823C316.801 409.186 317.532 408.7 318.4 408.365C319.269 408.021 320.232 407.849 321.29 407.849C322.666 407.849 323.845 408.141 324.825 408.726C325.814 409.302 326.554 410.051 327.044 410.971C327.534 411.891 327.779 412.828 327.779 413.783C327.779 414.669 327.526 415.245 327.018 415.512C326.511 415.77 325.797 415.899 324.877 415.899ZM317.988 413.899H324.373C324.287 412.695 323.961 411.796 323.393 411.203C322.834 410.601 322.094 410.3 321.174 410.3C320.297 410.3 319.574 410.605 319.007 411.216C318.448 411.818 318.108 412.712 317.988 413.899Z" fill="#5E5CE6"/>
<path d="M214.962 381.047L218.527 391.156H218.668L222.233 381.047H223.758L219.348 393.056H217.847L213.437 381.047H214.962ZM225.441 393.056V384.049H226.825V393.056H225.441ZM226.144 382.548C225.875 382.548 225.642 382.456 225.447 382.273C225.255 382.089 225.159 381.868 225.159 381.61C225.159 381.352 225.255 381.131 225.447 380.947C225.642 380.764 225.875 380.672 226.144 380.672C226.414 380.672 226.645 380.764 226.836 380.947C227.032 381.131 227.13 381.352 227.13 381.61C227.13 381.868 227.032 382.089 226.836 382.273C226.645 382.456 226.414 382.548 226.144 382.548ZM230.743 381.047V393.056H229.359V381.047H230.743ZM234.662 381.047V393.056H233.278V381.047H234.662ZM240.973 393.244C240.105 393.244 239.356 393.052 238.727 392.669C238.102 392.282 237.619 391.743 237.279 391.051C236.942 390.355 236.774 389.546 236.774 388.623C236.774 387.701 236.942 386.888 237.279 386.184C237.619 385.476 238.092 384.925 238.698 384.53C239.308 384.131 240.019 383.932 240.832 383.932C241.301 383.932 241.765 384.01 242.222 384.167C242.679 384.323 243.096 384.577 243.471 384.929C243.846 385.277 244.145 385.738 244.368 386.313C244.591 386.888 244.702 387.595 244.702 388.436V389.022H237.759V387.826H243.295C243.295 387.318 243.193 386.864 242.99 386.465C242.791 386.067 242.505 385.752 242.134 385.521C241.766 385.291 241.333 385.175 240.832 385.175C240.281 385.175 239.804 385.312 239.401 385.586C239.003 385.855 238.696 386.207 238.481 386.641C238.266 387.075 238.158 387.54 238.158 388.037V388.834C238.158 389.515 238.275 390.091 238.51 390.564C238.748 391.033 239.079 391.391 239.501 391.637C239.923 391.88 240.414 392.001 240.973 392.001C241.336 392.001 241.665 391.95 241.958 391.848C242.255 391.743 242.511 391.587 242.726 391.379C242.941 391.168 243.107 390.906 243.225 390.594L244.562 390.969C244.421 391.422 244.184 391.821 243.852 392.165C243.52 392.505 243.109 392.771 242.621 392.963C242.132 393.15 241.583 393.244 240.973 393.244Z" fill="#808080"/>
</svg>
